<svg width="69" height="47" viewBox="0 0 69 47" fill="none" xmlns="http://www.w3.org/2000/svg">
<rect width="69" height="47" fill="#615DFA" fill-opacity="0.1"/>
<path d="M16.4383 25.08C16.4383 32.2853 16.8303 38.0347 17.6143 42.328C16.4196 42.776 15.1503 43 13.8063 43C12.4623 43 11.2863 42.5707 10.2783 41.712C9.30758 40.8533 8.82225 39.6773 8.82225 38.184C8.82225 36.6533 9.00892 33.7787 9.38225 29.56C9.75558 25.3413 9.94225 22.0747 9.94225 19.76C9.94225 14.048 9.55025 8.54133 8.76625 3.24C11.5289 3.464 15.2436 3.576 19.9103 3.576C24.5769 3.576 29.0383 3.24 33.2943 2.568C33.7423 3.38933 33.9663 4.37866 33.9663 5.536C33.9663 6.656 33.5183 7.664 32.6223 8.56C31.7636 9.41867 30.6809 9.848 29.3743 9.848C28.1049 9.848 26.0516 9.66133 23.2143 9.288C20.4143 8.91466 18.3423 8.728 16.9983 8.728C16.6996 12.7973 16.5129 16.5307 16.4383 19.928C18.6036 20.152 20.9929 20.264 23.6063 20.264C26.2569 20.264 28.5529 19.872 30.4943 19.088C30.9423 19.9093 31.1663 20.8987 31.1663 22.056C31.1663 23.176 30.7183 24.2027 29.8223 25.136C28.9636 26.032 27.9369 26.48 26.7423 26.48C25.5476 26.48 23.8303 26.256 21.5903 25.808C19.3503 25.3227 17.6329 25.08 16.4383 25.08ZM38.1881 3.912C39.3828 3.464 40.6708 3.24 42.0521 3.24C45.3748 3.24 47.0361 4.752 47.0361 7.776C47.0361 9.41867 46.8495 12.1253 46.4761 15.896C46.1028 19.6293 45.9161 23.512 45.9161 27.544C45.9161 31.576 46.0468 34.9173 46.3081 37.568C47.3161 37.68 48.3241 37.736 49.3321 37.736C54.2601 37.736 58.5908 36.9147 62.3241 35.272C62.7721 36.28 62.9961 37.4187 62.9961 38.688C62.9961 39.9573 62.5481 41.0587 61.6521 41.992C60.7935 42.888 59.7295 43.336 58.4601 43.336C55.8095 43.336 50.0041 43.112 41.0441 42.664C40.3348 42.6267 39.7188 42.4213 39.1961 42.048C38.6735 41.6373 38.4121 41.1333 38.4121 40.536C38.4121 38.5573 38.5615 35.216 38.8601 30.512C39.1961 25.808 39.3641 21.4773 39.3641 17.52C39.3641 13.5253 38.9721 8.98933 38.1881 3.912Z" fill="#615DFA"/>
</svg>
